<svg style="max-height: 500px" xmlns="http://www.w3.org/2000/svg" viewBox="1111.7333472300002 918.13334481 445.3333389 593.33334075" xml:space="preserve" id="svg2" version="1.1" width="445.3333389" height="593.33334075"><metadata id="metadata8">image/svg+xml</metadata><defs id="defs6"><linearGradient id="linearGradient28" spreadMethod="pad" gradientTransform="matrix(0,378.12009,378.12009,0,1000,865.70587)" gradientUnits="userSpaceOnUse" y2="0" x2="1" y1="0" x1="0"><stop id="stop24" offset="0" style="stop-opacity:1;stop-color:#364cc9"/><stop id="stop26" offset="1" style="stop-opacity:1;stop-color:#1390d3"/></linearGradient><clipPath id="clipPath38" clipPathUnits="userSpaceOnUse"><path id="path36" d="M 0,2000 H 2000 V 0 H 0 Z"/></clipPath><clipPath id="clipPath46" clipPathUnits="userSpaceOnUse"><path id="path44" d="M 884.372,1249.25 H 1138.52 V 949.209 H 884.372 Z"/></clipPath><linearGradient id="linearGradient72" spreadMethod="pad" gradientTransform="matrix(254.14572,0,0,-254.14572,872.92688,1128.8206)" gradientUnits="userSpaceOnUse" y2="0" x2="1" y1="0" x1="0"><stop id="stop68" offset="0" style="stop-opacity:1;stop-color:#e8f401"/><stop id="stop70" offset="1" style="stop-opacity:1;stop-color:#c9b336"/></linearGradient><clipPath id="clipPath82" clipPathUnits="userSpaceOnUse"><path id="path80" d="M 0,2000 H 2000 V 0 H 0 Z"/></clipPath></defs><g transform="matrix(1.3333333,0,0,-1.3333333,0,2666.6667)" id="g10"><g id="g12"><g id="g14"><g id="g20"><g id="g22"><path id="path30" style="fill:url(#linearGradient28);stroke:none" d="m 989.628,1249.254 c -12.301,-9.841 -34.872,-26.362 -63.981,-40.937 v 0 c -25.075,-12.546 -54.999,-23.631 -87.368,-27.75 v 0 c 0,0 -32.771,-233.326 161.72,-310.767 v 0 c 194.504,77.441 161.72,310.767 161.72,310.767 v 0 c -90.429,11.486 -161.72,77.441 -161.72,77.441 v 0 c 0,0 -3.662,-3.39 -10.371,-8.754"/></g></g></g></g><g id="g32"><g clip-path="url(#clipPath38)" id="g34"><g id="g40"><g id="g42"/><g id="g54"><g style="opacity:0.19999701" id="g52" clip-path="url(#clipPath46)"><g id="g50" transform="translate(1077.9983,962.0025)"><path id="path48" style="fill:#000000;fill-opacity:1;fill-rule:nonzero;stroke:none" d="m 0,0 c -11.086,-5.722 -22.757,-9.841 -34.687,-12.359 -13.059,-2.746 -25.218,7.91 -23.673,21.156 1.073,9.154 5.65,20.168 15.791,33.328 43.327,56.343 47.733,110.827 -0.586,157.258 0,0 27.821,-50.765 -22.943,-96.566 -50.765,-45.83 -54.47,-76.77 -44.572,-95.35 0,0 15.134,51.565 50.35,56.286 0,0 -24.66,-20.083 -27.263,-52.439 -1.058,-13.102 -14.376,-21.684 -26.591,-16.821 -7.452,2.975 -14.69,6.608 -21.613,10.928 -40.395,25.104 -78.028,74.467 -45.515,169.788 0,0 -3.991,-54.641 34.286,-38.292 38.292,16.364 4.391,66.199 -1.988,84.15 -1.745,4.921 -3.49,13.99 -3.347,25.247 29.108,14.576 51.68,31.097 63.981,40.938 1.087,-17.88 8.025,-34.787 27.764,-42.397 47.99,-18.481 99.741,-34.172 84.565,-92.089 -3.891,-14.876 17.98,-21.685 22.843,-7.095 1.531,4.535 2.661,10.242 3.204,17.294 C 50.006,162.965 94.635,49.02 0,0"/></g></g></g></g></g></g><g id="g56"><g id="g58"><g id="g64"><g id="g66"><path id="path74" style="fill:url(#linearGradient72);stroke:none" d="m 917.553,1183.074 c 6.373,-17.955 40.272,-67.798 1.989,-84.148 v 0 c -38.284,-16.362 -34.295,38.283 -34.295,38.283 v 0 c -32.509,-95.323 5.13,-144.68 45.515,-169.787 v 0 c 6.934,-4.311 14.171,-7.955 21.621,-10.926 v 0 c 12.209,-4.869 25.534,3.715 26.59,16.818 v 0 c 2.608,32.36 27.259,52.447 27.259,52.447 v 0 c -35.209,-4.723 -50.351,-56.295 -50.351,-56.295 v 0 c -9.898,18.577 -6.192,49.527 44.577,95.347 v 0 c 50.769,45.809 22.938,96.578 22.938,96.578 v 0 c 48.318,-46.431 43.922,-100.917 0.588,-157.257 v 0 c -10.132,-13.169 -14.713,-24.185 -15.787,-33.335 v 0 c -1.553,-13.251 10.618,-23.904 23.672,-21.155 v 0 c 11.925,2.512 23.594,6.631 34.68,12.365 v 0 c 94.635,49.018 50.013,162.963 50.013,162.963 v 0 c -0.543,-7.062 -1.673,-12.757 -3.198,-17.3 v 0 c -4.87,-14.588 -26.746,-7.786 -22.848,7.096 v 0 c 15.175,57.922 -36.576,73.605 -84.566,92.092 v 0 c -51.041,19.684 -16.486,101.572 -16.486,101.572 v 0 c -84.544,-34.566 -78.295,-107.414 -71.911,-125.358"/></g></g></g></g><g id="g76"><g clip-path="url(#clipPath82)" id="g78"><g transform="translate(509.6499,793.5604)" id="g84"><path id="path86" style="fill:#0a035b;fill-opacity:1;fill-rule:nonzero;stroke:none" d="M 0,0 25.528,30.515 H 39.71 v -70.42 H 26.701 V 11.736 L 0,-20.051 -26.799,11.736 v -51.641 h -12.91 v 70.42 h 14.084 z"/></g><g transform="translate(623.3985,824.0756)" id="g88"><path id="path90" style="fill:#0a035b;fill-opacity:1;fill-rule:nonzero;stroke:none" d="m 0,0 h 15.453 l -32.569,-44.11 v -26.31 h -12.91 v 26.31 L -62.597,0 h 15.356 l 23.67,-29.928 z"/></g><g transform="translate(706.5334,824.0756)" id="g92"><path id="path94" style="fill:#0a035b;fill-opacity:1;fill-rule:nonzero;stroke:none" d="M 0,0 H 12.911 V -70.42 H 0 v 28.755 H -46.164 V -70.42 H -59.075 V 0 h 12.911 V -28.755 H 0 Z"/></g><g transform="translate(730.9852,824.0756)" id="g96"><path id="path98" style="fill:#0a035b;fill-opacity:1;fill-rule:nonzero;stroke:none" d="M 0,0 H 70.42 V -12.911 H 41.763 V -70.42 H 28.754 v 57.509 l -28.754,0 z"/></g><g transform="translate(826.1508,790.7239)" id="g100"><path id="path102" style="fill:#0a035b;fill-opacity:1;fill-rule:nonzero;stroke:none" d="m 0,0 h 43.132 c 0.456,0 0.685,0.228 0.685,0.685 v 18.974 c 0,0.455 -0.229,0.684 -0.685,0.684 H 0 c -0.457,0 -0.685,-0.229 -0.685,-0.684 V 0.685 C -0.685,0.228 -0.457,0 0,0 M 56.825,19.659 V 0.685 c 0,-3.717 -1.337,-6.913 -4.009,-9.586 -2.675,-2.674 -5.902,-4.01 -9.684,-4.01 h -3.814 l 17.507,-20.832 v -3.326 H 42.742 l -20.344,24.158 h -22.79 -0.293 v -24.158 h -12.911 v 70.323 h 56.728 c 3.782,0 7.009,-1.338 9.684,-4.01 2.672,-2.675 4.009,-5.869 4.009,-9.585"/></g><g transform="translate(910.3608,790.235)" id="g104"><path id="path106" style="fill:#0a035b;fill-opacity:1;fill-rule:nonzero;stroke:none" d="m 0,0 h 44.502 v 20.245 c 0,0.456 -0.23,0.685 -0.684,0.685 H 0.685 C 0.228,20.93 0,20.701 0,20.245 Z m 0.685,33.841 h 43.133 c 3.78,0 7.008,-1.321 9.682,-3.962 2.672,-2.641 4.01,-5.853 4.01,-9.634 V -36.58 H 44.502 v 23.669 H 0 V -36.58 h -12.91 v 56.825 c 0,3.781 1.321,6.993 3.961,9.634 2.641,2.641 5.852,3.962 9.634,3.962"/></g><g transform="translate(1086.9005,810.4804)" id="g108"><path id="path110" style="fill:#0a035b;fill-opacity:1;fill-rule:nonzero;stroke:none" d="M 0,0 V -5.379 H -13.007 V 0 c 0,0.456 -0.196,0.685 -0.587,0.685 H -56.825 C -57.282,0.685 -57.51,0.456 -57.51,0 v -14.475 c 0,-0.457 0.228,-0.685 0.685,-0.685 h 43.231 c 3.716,0 6.91,-1.32 9.585,-3.961 C -1.337,-21.762 0,-24.974 0,-28.755 V -43.23 c 0,-3.782 -1.337,-6.993 -4.009,-9.634 -2.675,-2.64 -5.869,-3.961 -9.585,-3.961 h -43.231 c -3.782,0 -6.993,1.321 -9.634,3.961 -2.64,2.641 -3.961,5.852 -3.961,9.634 v 5.379 h 12.91 v -5.379 c 0,-0.457 0.228,-0.685 0.685,-0.685 h 43.231 c 0.391,0 0.587,0.228 0.587,0.685 v 14.475 c 0,0.456 -0.196,0.685 -0.587,0.685 h -43.231 c -3.782,0 -6.993,1.32 -9.634,3.961 -2.64,2.641 -3.961,5.852 -3.961,9.634 V 0 c 0,3.781 1.321,6.993 3.961,9.634 2.641,2.641 5.852,3.961 9.634,3.961 h 43.231 c 3.716,0 6.91,-1.32 9.585,-3.961 C -1.337,6.993 0,3.781 0,0"/></g><g transform="translate(1097.7577,824.0756)" id="g112"><path id="path114" style="fill:#0a035b;fill-opacity:1;fill-rule:nonzero;stroke:none" d="M 0,0 H 70.42 V -12.911 H 41.763 V -70.42 H 28.754 v 57.509 l -28.754,0 z"/></g><g transform="translate(1236.6427,767.2505)" id="g116"><path id="path118" style="fill:#0a035b;fill-opacity:1;fill-rule:nonzero;stroke:none" d="M 0,0 V 56.825 H 13.008 V 0 c 0,-3.782 -1.337,-6.993 -4.01,-9.634 -2.675,-2.641 -5.869,-3.961 -9.585,-3.961 h -43.231 c -3.781,0 -6.992,1.32 -9.634,3.961 -2.64,2.641 -3.96,5.852 -3.96,9.634 v 56.825 h 12.91 V 0 c 0,-0.457 0.227,-0.685 0.684,-0.685 H -0.587 C -0.196,-0.685 0,-0.457 0,0"/></g><g transform="translate(1321.929,767.2505)" id="g120"><path id="path122" style="fill:#0a035b;fill-opacity:1;fill-rule:nonzero;stroke:none" d="m 0,0 v 43.23 c 0,0.455 -0.23,0.684 -0.685,0.684 h -43.133 c -0.457,0 -0.685,-0.229 -0.685,-0.684 V 0 c 0,-0.457 0.228,-0.685 0.685,-0.685 H -0.685 C -0.23,-0.685 0,-0.457 0,0 m -57.412,56.825 h 56.727 c 3.781,0 7.008,-1.32 9.683,-3.961 2.672,-2.641 4.009,-5.853 4.009,-9.634 V 0 c 0,-3.782 -1.337,-6.993 -4.009,-9.634 -2.675,-2.641 -5.902,-3.961 -9.683,-3.961 h -56.727 z"/></g><path id="path124" style="fill:#0a035b;fill-opacity:1;fill-rule:nonzero;stroke:none" d="m 1349.901,824.076 h 12.911 v -70.42 h -12.911 z"/><g transform="translate(1388.6322,766.5659)" id="g126"><path id="path128" style="fill:#0a035b;fill-opacity:1;fill-rule:nonzero;stroke:none" d="m 0,0 h 43.23 c 0.392,0 0.588,0.228 0.588,0.685 v 43.23 c 0,0.455 -0.196,0.684 -0.588,0.684 H 0 c -0.457,0 -0.685,-0.229 -0.685,-0.684 V 0.685 C -0.685,0.228 -0.457,0 0,0 m 0,57.51 h 43.23 c 3.717,0 6.911,-1.32 9.586,-3.962 2.673,-2.64 4.01,-5.852 4.01,-9.633 V 0.685 c 0,-3.783 -1.337,-6.993 -4.01,-9.634 -2.675,-2.641 -5.869,-3.962 -9.586,-3.962 H 0 c -3.782,0 -6.992,1.321 -9.634,3.962 -2.64,2.641 -3.961,5.851 -3.961,9.634 v 43.23 c 0,3.781 1.321,6.993 3.961,9.633 2.642,2.642 5.852,3.962 9.634,3.962"/></g><g transform="translate(1530.0588,810.4804)" id="g130"><path id="path132" style="fill:#0a035b;fill-opacity:1;fill-rule:nonzero;stroke:none" d="M 0,0 V -5.379 H -13.007 V 0 c 0,0.456 -0.196,0.685 -0.588,0.685 h -43.23 C -57.282,0.685 -57.51,0.456 -57.51,0 v -14.475 c 0,-0.457 0.228,-0.685 0.685,-0.685 h 43.23 c 3.717,0 6.911,-1.32 9.586,-3.961 C -1.337,-21.762 0,-24.974 0,-28.755 V -43.23 c 0,-3.782 -1.337,-6.993 -4.009,-9.634 -2.675,-2.64 -5.869,-3.961 -9.586,-3.961 h -43.23 c -3.782,0 -6.993,1.321 -9.634,3.961 -2.64,2.641 -3.961,5.852 -3.961,9.634 v 5.379 h 12.91 v -5.379 c 0,-0.457 0.228,-0.685 0.685,-0.685 h 43.23 c 0.392,0 0.588,0.228 0.588,0.685 v 14.475 c 0,0.456 -0.196,0.685 -0.588,0.685 h -43.23 c -3.782,0 -6.993,1.32 -9.634,3.961 -2.64,2.641 -3.961,5.852 -3.961,9.634 V 0 c 0,3.781 1.321,6.993 3.961,9.634 2.641,2.641 5.852,3.961 9.634,3.961 h 43.23 c 3.717,0 6.911,-1.32 9.586,-3.961 C -1.337,6.993 0,3.781 0,0"/></g><g transform="translate(528.7277,708.3958)" id="g134"><path id="path136" style="fill:#305dfd;fill-opacity:1;fill-rule:nonzero;stroke:none" d="m 0,0 v 6.242 c 0,0.149 -0.076,0.225 -0.225,0.225 h -14.19 c -0.15,0 -0.225,-0.076 -0.225,-0.225 V 0 c 0,-0.151 0.075,-0.225 0.225,-0.225 h 14.19 C -0.076,-0.225 0,-0.151 0,0 m -18.887,10.714 h 18.662 c 1.243,0 2.305,-0.439 3.184,-1.319 0.88,-0.879 1.32,-1.93 1.32,-3.153 L 4.279,0 c 0,-1.223 -0.44,-2.274 -1.32,-3.153 -0.879,-0.88 -1.941,-1.32 -3.184,-1.32 l -14.319,-0.032 -0.096,0.032 v -7.947 h -4.247 z"/></g><g transform="translate(556.6869,700.4482)" id="g138"><path id="path140" style="fill:#305dfd;fill-opacity:1;fill-rule:nonzero;stroke:none" d="M 0,0 V 18.694 H 4.28 V 0 C 4.28,-1.244 3.84,-2.3 2.961,-3.169 2.081,-4.038 1.03,-4.472 -0.192,-4.472 h -14.222 c -1.244,0 -2.3,0.434 -3.17,1.303 -0.868,0.869 -1.303,1.925 -1.303,3.169 v 18.694 h 4.248 V 0 c 0,-0.15 0.075,-0.225 0.225,-0.225 H -0.192 C -0.064,-0.225 0,-0.15 0,0"/></g><g transform="translate(571.5214,708.1704)" id="g142"><path id="path144" style="fill:#305dfd;fill-opacity:1;fill-rule:nonzero;stroke:none" d="m 0,0 h 14.189 c 0.15,0 0.226,0.075 0.226,0.225 v 6.242 c 0,0.15 -0.076,0.225 -0.226,0.225 L 0,6.692 c -0.151,0 -0.225,-0.075 -0.225,-0.225 V 0.225 C -0.225,0.075 -0.151,0 0,0 M 18.693,6.467 V 0.225 c 0,-1.222 -0.44,-2.274 -1.319,-3.153 -0.879,-0.88 -1.941,-1.319 -3.185,-1.319 h -1.255 l 5.759,-6.853 v -1.094 H 14.06 l -6.693,7.947 h -7.496 -0.096 v -7.947 H -4.473 V 10.94 h 18.662 c 1.244,0 2.306,-0.44 3.185,-1.319 0.879,-0.88 1.319,-1.931 1.319,-3.154"/></g><g transform="translate(619.2051,714.6699)" id="g146"><path id="path148" style="fill:#305dfd;fill-opacity:1;fill-rule:nonzero;stroke:none" d="M 0,0 V -1.77 H -4.28 V 0 c 0,0.149 -0.064,0.225 -0.193,0.225 h -14.222 c -0.15,0 -0.225,-0.076 -0.225,-0.225 v -4.762 c 0,-0.15 0.075,-0.225 0.225,-0.225 h 14.222 c 1.223,0 2.273,-0.434 3.154,-1.303 C -0.44,-7.159 0,-8.216 0,-9.459 v -4.763 c 0,-1.244 -0.44,-2.3 -1.319,-3.169 -0.881,-0.869 -1.931,-1.303 -3.154,-1.303 h -14.222 c -1.244,0 -2.3,0.434 -3.169,1.303 -0.868,0.869 -1.303,1.925 -1.303,3.169 v 1.77 h 4.247 v -1.77 c 0,-0.15 0.075,-0.225 0.225,-0.225 h 14.222 c 0.129,0 0.193,0.075 0.193,0.225 v 4.763 c 0,0.149 -0.064,0.224 -0.193,0.224 h -14.222 c -1.244,0 -2.3,0.435 -3.169,1.304 -0.868,0.869 -1.303,1.925 -1.303,3.169 V 0 c 0,1.244 0.435,2.301 1.303,3.169 0.869,0.869 1.925,1.303 3.169,1.303 H -4.473 C -3.25,4.472 -2.2,4.038 -1.319,3.169 -0.44,2.301 0,1.244 0,0"/></g><g transform="translate(644.0437,700.4482)" id="g150"><path id="path152" style="fill:#305dfd;fill-opacity:1;fill-rule:nonzero;stroke:none" d="M 0,0 V 18.694 H 4.28 V 0 C 4.28,-1.244 3.84,-2.3 2.961,-3.169 2.081,-4.038 1.03,-4.472 -0.192,-4.472 h -14.223 c -1.243,0 -2.299,0.434 -3.169,1.303 -0.868,0.869 -1.303,1.925 -1.303,3.169 v 18.694 h 4.248 V 0 c 0,-0.15 0.075,-0.225 0.224,-0.225 H -0.192 C -0.064,-0.225 0,-0.15 0,0"/></g><path id="path154" style="fill:#305dfd;fill-opacity:1;fill-rule:nonzero;stroke:none" d="m 654.469,719.142 h 4.247 v -23.166 h -4.247 z"/><g transform="translate(682.9764,702.1539)" id="g156"><path id="path158" style="fill:#305dfd;fill-opacity:1;fill-rule:nonzero;stroke:none" d="M 0,0 V 16.988 H 4.279 V -6.178 H -0.355 L -14.64,10.811 V -6.178 h -4.247 v 23.166 h 4.633 z"/></g><g transform="translate(716.5992,714.6699)" id="g160"><path id="path162" style="fill:#305dfd;fill-opacity:1;fill-rule:nonzero;stroke:none" d="M 0,0 V -1.802 H -4.279 V 0 c 0,0.149 -0.076,0.225 -0.225,0.225 h -14.189 c -0.151,0 -0.226,-0.076 -0.226,-0.225 v -14.222 c 0,-0.15 0.075,-0.225 0.226,-0.225 h 14.189 c 0.149,0 0.225,0.075 0.225,0.225 v 4.376 h -5.244 v 4.248 H 0 v -8.624 c 0,-1.244 -0.44,-2.3 -1.32,-3.169 -0.879,-0.869 -1.941,-1.303 -3.184,-1.303 h -14.189 c -1.245,0 -2.301,0.434 -3.17,1.303 -0.868,0.869 -1.303,1.925 -1.303,3.169 V 0 c 0,1.244 0.435,2.301 1.303,3.169 0.869,0.869 1.925,1.303 3.17,1.303 h 14.189 c 1.243,0 2.305,-0.434 3.184,-1.303 C -0.44,2.301 0,1.244 0,0"/></g><g transform="translate(754.0842,708.3958)" id="g164"><path id="path166" style="fill:#305dfd;fill-opacity:1;fill-rule:nonzero;stroke:none" d="m 0,0 v 6.242 c 0,0.149 -0.076,0.225 -0.225,0.225 h -14.189 c -0.151,0 -0.226,-0.076 -0.226,-0.225 V 0 c 0,-0.151 0.075,-0.225 0.226,-0.225 H -0.225 C -0.076,-0.225 0,-0.151 0,0 m -18.887,10.714 h 18.662 c 1.243,0 2.305,-0.439 3.184,-1.319 0.88,-0.879 1.32,-1.93 1.32,-3.153 L 4.279,0 c 0,-1.223 -0.44,-2.274 -1.32,-3.153 -0.879,-0.88 -1.941,-1.32 -3.184,-1.32 l -14.319,-0.032 -0.096,0.032 v -7.947 h -4.247 z"/></g><g transform="translate(784.5863,719.142)" id="g168"><path id="path170" style="fill:#305dfd;fill-opacity:1;fill-rule:nonzero;stroke:none" d="m 0,0 v -4.247 h -17.021 v -5.212 h 13.707 v -4.248 h -13.707 v -5.212 H 0 v -4.247 H -21.3 V 0 Z"/></g><g transform="translate(794.8822,708.1704)" id="g172"><path id="path174" style="fill:#305dfd;fill-opacity:1;fill-rule:nonzero;stroke:none" d="m 0,0 h 14.189 c 0.15,0 0.225,0.075 0.225,0.225 v 6.242 c 0,0.15 -0.075,0.225 -0.225,0.225 L 0,6.692 c -0.151,0 -0.225,-0.075 -0.225,-0.225 V 0.225 C -0.225,0.075 -0.151,0 0,0 M 18.693,6.467 V 0.225 c 0,-1.222 -0.44,-2.274 -1.319,-3.153 -0.879,-0.88 -1.941,-1.319 -3.185,-1.319 h -1.255 l 5.759,-6.853 v -1.094 H 14.06 l -6.693,7.947 h -7.496 -0.096 v -7.947 H -4.473 V 10.94 h 18.662 c 1.244,0 2.306,-0.44 3.185,-1.319 0.879,-0.88 1.319,-1.931 1.319,-3.154"/></g><g transform="translate(819.6247,719.142)" id="g176"><path id="path178" style="fill:#305dfd;fill-opacity:1;fill-rule:nonzero;stroke:none" d="M 0,0 H 21.3 V -4.247 H 4.279 v -5.212 h 13.707 v -4.248 H 4.279 v -9.459 H 0 Z"/></g><g transform="translate(866.7614,719.142)" id="g180"><path id="path182" style="fill:#305dfd;fill-opacity:1;fill-rule:nonzero;stroke:none" d="m 0,0 v -4.247 h -17.021 v -5.212 h 13.707 v -4.248 h -13.707 v -5.212 H 0 v -4.247 H -21.3 V 0 Z"/></g><g transform="translate(895.7197,714.8953)" id="g184"><path id="path186" style="fill:#305dfd;fill-opacity:1;fill-rule:nonzero;stroke:none" d="m 0,0 h -18.629 c -0.151,0 -0.226,-0.076 -0.226,-0.225 v -14.222 c 0,-0.15 0.075,-0.225 0.226,-0.225 H 0 v -4.247 h -18.629 c -1.245,0 -2.301,0.434 -3.17,1.302 -0.868,0.87 -1.302,1.926 -1.302,3.17 v 14.222 c 0,1.243 0.434,2.3 1.302,3.169 0.869,0.868 1.925,1.303 3.17,1.303 L 0,4.247 Z"/></g><g transform="translate(900.4814,719.142)" id="g188"><path id="path190" style="fill:#305dfd;fill-opacity:1;fill-rule:nonzero;stroke:none" d="M 0,0 H 23.167 V -4.247 H 13.739 V -23.166 H 9.459 V -4.247 H 0 Z"/></g><path id="path192" style="fill:#305dfd;fill-opacity:1;fill-rule:nonzero;stroke:none" d="m 928.667,719.142 h 4.247 v -23.166 h -4.247 z"/><g transform="translate(942.695,700.2233)" id="g194"><path id="path196" style="fill:#305dfd;fill-opacity:1;fill-rule:nonzero;stroke:none" d="m 0,0 h 14.222 c 0.128,0 0.192,0.075 0.192,0.225 v 14.222 c 0,0.149 -0.064,0.225 -0.192,0.225 L 0,14.672 c -0.15,0 -0.224,-0.076 -0.224,-0.225 V 0.225 C -0.224,0.075 -0.15,0 0,0 m 0,18.919 h 14.222 c 1.222,0 2.274,-0.435 3.153,-1.303 0.879,-0.869 1.319,-1.926 1.319,-3.169 V 0.225 c 0,-1.244 -0.44,-2.3 -1.319,-3.17 -0.879,-0.868 -1.931,-1.302 -3.153,-1.302 H 0 c -1.244,0 -2.3,0.434 -3.169,1.302 -0.869,0.87 -1.303,1.926 -1.303,3.17 v 14.222 c 0,1.243 0.434,2.3 1.303,3.169 0.869,0.868 1.925,1.303 3.169,1.303"/></g><g transform="translate(986.3894,702.1539)" id="g198"><path id="path200" style="fill:#305dfd;fill-opacity:1;fill-rule:nonzero;stroke:none" d="M 0,0 V 16.988 H 4.279 V -6.178 H -0.355 L -14.64,10.811 V -6.178 h -4.247 v 23.166 h 4.633 z"/></g><g transform="translate(996.7814,699.8051)" id="g202"><path id="path204" style="fill:#305dfd;fill-opacity:1;fill-rule:nonzero;stroke:none" d="M 0,0 H 4.215 V -3.765 C 4.215,-4.858 3.814,-5.824 3.009,-6.66 2.205,-7.497 1.201,-8.022 0,-8.237 Z"/></g><g transform="translate(1037.8701,708.3958)" id="g206"><path id="path208" style="fill:#305dfd;fill-opacity:1;fill-rule:nonzero;stroke:none" d="m 0,0 v 6.242 c 0,0.149 -0.076,0.225 -0.225,0.225 h -14.189 c -0.151,0 -0.226,-0.076 -0.226,-0.225 V 0 c 0,-0.151 0.075,-0.225 0.226,-0.225 H -0.225 C -0.076,-0.225 0,-0.151 0,0 m -18.887,10.714 h 18.662 c 1.243,0 2.305,-0.439 3.184,-1.319 0.88,-0.879 1.32,-1.93 1.32,-3.153 L 4.279,0 c 0,-1.223 -0.44,-2.274 -1.32,-3.153 -0.879,-0.88 -1.941,-1.32 -3.184,-1.32 l -14.319,-0.032 -0.096,0.032 v -7.947 h -4.247 z"/></g><g transform="translate(1051.4481,708.1704)" id="g210"><path id="path212" style="fill:#305dfd;fill-opacity:1;fill-rule:nonzero;stroke:none" d="m 0,0 h 14.189 c 0.15,0 0.225,0.075 0.225,0.225 v 6.242 c 0,0.15 -0.075,0.225 -0.225,0.225 L 0,6.692 c -0.151,0 -0.225,-0.075 -0.225,-0.225 V 0.225 C -0.225,0.075 -0.151,0 0,0 M 18.693,6.467 V 0.225 c 0,-1.222 -0.44,-2.274 -1.319,-3.153 -0.879,-0.88 -1.942,-1.319 -3.185,-1.319 h -1.255 l 5.759,-6.853 v -1.094 H 14.06 l -6.693,7.947 h -7.496 -0.096 v -7.947 H -4.473 V 10.94 h 18.662 c 1.243,0 2.306,-0.44 3.185,-1.319 0.879,-0.88 1.319,-1.931 1.319,-3.154"/></g><g transform="translate(1080.5334,700.2233)" id="g214"><path id="path216" style="fill:#305dfd;fill-opacity:1;fill-rule:nonzero;stroke:none" d="m 0,0 h 14.222 c 0.128,0 0.192,0.075 0.192,0.225 v 14.222 c 0,0.149 -0.064,0.225 -0.192,0.225 L 0,14.672 c -0.15,0 -0.224,-0.076 -0.224,-0.225 V 0.225 C -0.224,0.075 -0.15,0 0,0 m 0,18.919 h 14.222 c 1.222,0 2.274,-0.435 3.153,-1.303 0.879,-0.869 1.319,-1.926 1.319,-3.169 V 0.225 c 0,-1.244 -0.44,-2.3 -1.319,-3.17 -0.879,-0.868 -1.931,-1.302 -3.153,-1.302 H 0 c -1.244,0 -2.3,0.434 -3.169,1.302 -0.869,0.87 -1.303,1.926 -1.303,3.17 v 14.222 c 0,1.243 0.434,2.3 1.303,3.169 0.869,0.868 1.925,1.303 3.169,1.303"/></g><g transform="translate(1122.5559,700.4482)" id="g218"><path id="path220" style="fill:#305dfd;fill-opacity:1;fill-rule:nonzero;stroke:none" d="M 0,0 V 18.694 H 4.279 V 0 c 0,-1.244 -0.44,-2.3 -1.32,-3.169 -0.879,-0.869 -1.93,-1.303 -3.152,-1.303 h -14.221 c -1.245,0 -2.301,0.434 -3.17,1.303 -0.868,0.869 -1.304,1.925 -1.304,3.169 v 2.638 h 4.248 V 0 c 0,-0.15 0.075,-0.225 0.226,-0.225 H -0.193 C -0.065,-0.225 0,-0.15 0,0"/></g><g transform="translate(1154.3774,719.142)" id="g222"><path id="path224" style="fill:#305dfd;fill-opacity:1;fill-rule:nonzero;stroke:none" d="m 0,0 v -4.247 h -17.021 v -5.212 h 13.707 v -4.248 h -13.707 v -5.212 H 0 v -4.247 H -21.3 V 0 Z"/></g><g transform="translate(1183.3346,714.8953)" id="g226"><path id="path228" style="fill:#305dfd;fill-opacity:1;fill-rule:nonzero;stroke:none" d="m 0,0 h -18.629 c -0.151,0 -0.226,-0.076 -0.226,-0.225 v -14.222 c 0,-0.15 0.075,-0.225 0.226,-0.225 H 0 v -4.247 h -18.629 c -1.245,0 -2.301,0.434 -3.169,1.302 -0.869,0.87 -1.303,1.926 -1.303,3.17 v 14.222 c 0,1.243 0.434,2.3 1.303,3.169 0.868,0.868 1.924,1.303 3.169,1.303 L 0,4.247 Z"/></g><g transform="translate(1188.0963,719.142)" id="g230"><path id="path232" style="fill:#305dfd;fill-opacity:1;fill-rule:nonzero;stroke:none" d="M 0,0 H 23.167 V -4.247 H 13.739 V -23.166 H 9.459 V -4.247 H 0 Z"/></g><g transform="translate(1247.717,700.4482)" id="g234"><path id="path236" style="fill:#305dfd;fill-opacity:1;fill-rule:nonzero;stroke:none" d="m 0,0 v 4.987 c 0,0.129 -0.076,0.194 -0.225,0.194 h -14.19 c -0.15,0 -0.225,-0.065 -0.225,-0.194 V 0 c 0,-0.15 0.075,-0.225 0.225,-0.225 h 14.19 C -0.076,-0.225 0,-0.15 0,0 m -1.126,14.447 h -13.289 c -0.15,0 -0.225,-0.076 -0.225,-0.225 V 9.685 c 0,-0.15 0.075,-0.225 0.225,-0.225 h 13.289 c 0.128,0 0.193,0.075 0.193,0.225 v 4.537 c 0,0.149 -0.065,0.225 -0.193,0.225 M 3.346,14.222 V 9.685 C 3.346,9.042 3.238,8.495 3.025,8.044 3.861,7.164 4.279,6.146 4.279,4.987 V 0 C 4.279,-1.244 3.84,-2.3 2.96,-3.169 2.08,-4.038 1.018,-4.472 -0.225,-4.472 h -18.662 v 23.166 h 17.761 c 1.222,0 2.273,-0.434 3.153,-1.303 0.879,-0.869 1.319,-1.926 1.319,-3.169"/></g><g transform="translate(1276.2245,719.142)" id="g238"><path id="path240" style="fill:#305dfd;fill-opacity:1;fill-rule:nonzero;stroke:none" d="M 0,0 H 5.084 L -5.63,-14.511 v -8.655 h -4.247 v 8.655 L -20.592,0 h 5.051 l 7.787,-9.846 z"/></g><g transform="translate(1316.7661,708.3958)" id="g242"><path id="path244" style="fill:#305dfd;fill-opacity:1;fill-rule:nonzero;stroke:none" d="m 0,0 v 6.242 c 0,0.149 -0.076,0.225 -0.225,0.225 h -14.189 c -0.151,0 -0.226,-0.076 -0.226,-0.225 V 0 c 0,-0.151 0.075,-0.225 0.226,-0.225 H -0.225 C -0.076,-0.225 0,-0.151 0,0 m -18.887,10.714 h 18.662 c 1.243,0 2.305,-0.439 3.184,-1.319 0.88,-0.879 1.32,-1.93 1.32,-3.153 L 4.279,0 c 0,-1.223 -0.44,-2.274 -1.32,-3.153 -0.879,-0.88 -1.941,-1.32 -3.184,-1.32 l -14.319,-0.032 -0.096,0.032 v -7.947 h -4.247 z"/></g><g transform="translate(1330.3441,708.1704)" id="g246"><path id="path248" style="fill:#305dfd;fill-opacity:1;fill-rule:nonzero;stroke:none" d="m 0,0 h 14.189 c 0.15,0 0.226,0.075 0.226,0.225 v 6.242 c 0,0.15 -0.076,0.225 -0.226,0.225 L 0,6.692 c -0.151,0 -0.225,-0.075 -0.225,-0.225 V 0.225 C -0.225,0.075 -0.151,0 0,0 M 18.693,6.467 V 0.225 c 0,-1.222 -0.44,-2.274 -1.319,-3.153 -0.879,-0.88 -1.941,-1.319 -3.185,-1.319 h -1.255 l 5.759,-6.853 v -1.094 H 14.06 l -6.693,7.947 h -7.496 -0.096 v -7.947 H -4.473 V 10.94 h 18.662 c 1.244,0 2.306,-0.44 3.185,-1.319 0.879,-0.88 1.319,-1.931 1.319,-3.154"/></g><g transform="translate(1359.4294,700.2233)" id="g250"><path id="path252" style="fill:#305dfd;fill-opacity:1;fill-rule:nonzero;stroke:none" d="m 0,0 h 14.222 c 0.128,0 0.192,0.075 0.192,0.225 v 14.222 c 0,0.149 -0.064,0.225 -0.192,0.225 L 0,14.672 c -0.15,0 -0.224,-0.076 -0.224,-0.225 V 0.225 C -0.224,0.075 -0.15,0 0,0 m 0,18.919 h 14.222 c 1.222,0 2.274,-0.435 3.153,-1.303 0.879,-0.869 1.319,-1.926 1.319,-3.169 V 0.225 c 0,-1.244 -0.44,-2.3 -1.319,-3.17 -0.879,-0.868 -1.931,-1.302 -3.153,-1.302 H 0 c -1.244,0 -2.3,0.434 -3.169,1.302 -0.869,0.87 -1.303,1.926 -1.303,3.17 v 14.222 c 0,1.243 0.434,2.3 1.303,3.169 0.869,0.868 1.925,1.303 3.169,1.303"/></g><g transform="translate(1401.4519,700.4482)" id="g254"><path id="path256" style="fill:#305dfd;fill-opacity:1;fill-rule:nonzero;stroke:none" d="M 0,0 V 18.694 H 4.279 V 0 c 0,-1.244 -0.44,-2.3 -1.32,-3.169 -0.879,-0.869 -1.93,-1.303 -3.152,-1.303 h -14.221 c -1.245,0 -2.301,0.434 -3.17,1.303 -0.868,0.869 -1.304,1.925 -1.304,3.169 v 2.638 h 4.248 V 0 c 0,-0.15 0.075,-0.225 0.226,-0.225 H -0.193 C -0.065,-0.225 0,-0.15 0,0"/></g><g transform="translate(1433.2736,719.142)" id="g258"><path id="path260" style="fill:#305dfd;fill-opacity:1;fill-rule:nonzero;stroke:none" d="m 0,0 v -4.247 h -17.021 v -5.212 h 13.707 v -4.248 h -13.707 v -5.212 H 0 v -4.247 H -21.3 V 0 Z"/></g><g transform="translate(1462.2307,714.8953)" id="g262"><path id="path264" style="fill:#305dfd;fill-opacity:1;fill-rule:nonzero;stroke:none" d="m 0,0 h -18.629 c -0.151,0 -0.226,-0.076 -0.226,-0.225 v -14.222 c 0,-0.15 0.075,-0.225 0.226,-0.225 H 0 v -4.247 h -18.629 c -1.245,0 -2.301,0.434 -3.17,1.302 -0.868,0.87 -1.302,1.926 -1.302,3.17 v 14.222 c 0,1.243 0.434,2.3 1.302,3.169 0.869,0.868 1.925,1.303 3.17,1.303 L 0,4.247 Z"/></g><g transform="translate(1466.9924,719.142)" id="g266"><path id="path268" style="fill:#305dfd;fill-opacity:1;fill-rule:nonzero;stroke:none" d="M 0,0 H 23.167 V -4.247 H 13.739 V -23.166 H 9.459 V -4.247 H 0 Z"/></g></g></g></g></svg>